<mxfile host="app.diagrams.net" modified="2024-04-29T23:57:14.786Z" agent="Mozilla/5.0 (Windows NT 10.0; Win64; x64; rv:124.0) Gecko/20100101 Firefox/124.0" etag="JKDzoreoYCV1hhURUfVz" version="24.3.0" type="device">
  <diagram name="Seite-1" id="ynNqoqu5EO02Pp0Qlfnw">
    <mxGraphModel dx="1434" dy="794" grid="0" gridSize="10" guides="1" tooltips="1" connect="1" arrows="1" fold="1" page="1" pageScale="1" pageWidth="1169" pageHeight="1654" math="0" shadow="0">
      <root>
        <mxCell id="0" />
        <mxCell id="1" parent="0" />
        <mxCell id="2TJLO5sUUVaPiXENoh-_-1" style="edgeStyle=orthogonalEdgeStyle;rounded=0;orthogonalLoop=1;jettySize=auto;html=1;exitX=0.5;exitY=1;exitDx=0;exitDy=0;entryX=0.5;entryY=0;entryDx=0;entryDy=0;" edge="1" parent="1" source="2TJLO5sUUVaPiXENoh-_-2" target="2TJLO5sUUVaPiXENoh-_-4">
          <mxGeometry relative="1" as="geometry" />
        </mxCell>
        <mxCell id="2TJLO5sUUVaPiXENoh-_-2" value="&lt;font size=&quot;1&quot;&gt;&lt;b style=&quot;font-size: 18px;&quot;&gt;Input: video features&lt;/b&gt;&lt;/font&gt;" style="rounded=0;whiteSpace=wrap;html=1;" vertex="1" parent="1">
          <mxGeometry x="322" y="63" width="236" height="60" as="geometry" />
        </mxCell>
        <mxCell id="2TJLO5sUUVaPiXENoh-_-3" value="&lt;font style=&quot;font-size: 18px;&quot;&gt;&lt;b&gt;Linear, 256&lt;br&gt;&lt;/b&gt;&lt;/font&gt;" style="rounded=0;whiteSpace=wrap;html=1;" vertex="1" parent="1">
          <mxGeometry x="648.5" y="226" width="131" height="60" as="geometry" />
        </mxCell>
        <mxCell id="2TJLO5sUUVaPiXENoh-_-4" value="&lt;font style=&quot;font-size: 18px;&quot;&gt;&lt;b&gt;Conv1D&lt;br&gt;&lt;/b&gt;&lt;/font&gt;" style="rounded=0;whiteSpace=wrap;html=1;" vertex="1" parent="1">
          <mxGeometry x="373" y="230" width="134" height="60" as="geometry" />
        </mxCell>
        <mxCell id="2TJLO5sUUVaPiXENoh-_-5" value="" style="edgeStyle=orthogonalEdgeStyle;rounded=0;orthogonalLoop=1;jettySize=auto;html=1;" edge="1" parent="1" source="2TJLO5sUUVaPiXENoh-_-6" target="2TJLO5sUUVaPiXENoh-_-8">
          <mxGeometry relative="1" as="geometry" />
        </mxCell>
        <mxCell id="2TJLO5sUUVaPiXENoh-_-6" value="&lt;font style=&quot;font-size: 18px;&quot;&gt;&lt;b&gt;Transfomer Block&lt;br&gt;&lt;/b&gt;&lt;/font&gt;" style="rounded=0;whiteSpace=wrap;html=1;fillColor=#dae8fc;strokeColor=#6c8ebf;" vertex="1" parent="1">
          <mxGeometry x="419" y="389" width="273" height="60" as="geometry" />
        </mxCell>
        <mxCell id="2TJLO5sUUVaPiXENoh-_-7" value="" style="edgeStyle=orthogonalEdgeStyle;rounded=0;orthogonalLoop=1;jettySize=auto;html=1;" edge="1" parent="1" source="2TJLO5sUUVaPiXENoh-_-8" target="2TJLO5sUUVaPiXENoh-_-16">
          <mxGeometry relative="1" as="geometry" />
        </mxCell>
        <mxCell id="2TJLO5sUUVaPiXENoh-_-8" value="&lt;font style=&quot;font-size: 18px;&quot;&gt;&lt;b&gt;Transfomer Block&lt;br&gt;&lt;/b&gt;&lt;/font&gt;" style="rounded=0;whiteSpace=wrap;html=1;fillColor=#dae8fc;strokeColor=#6c8ebf;" vertex="1" parent="1">
          <mxGeometry x="419" y="551" width="273" height="60" as="geometry" />
        </mxCell>
        <mxCell id="2TJLO5sUUVaPiXENoh-_-9" style="edgeStyle=orthogonalEdgeStyle;rounded=0;orthogonalLoop=1;jettySize=auto;html=1;exitX=0.5;exitY=1;exitDx=0;exitDy=0;entryX=0.626;entryY=0;entryDx=0;entryDy=0;entryPerimeter=0;" edge="1" parent="1" source="2TJLO5sUUVaPiXENoh-_-3">
          <mxGeometry relative="1" as="geometry">
            <mxPoint x="608.8979999999999" y="389" as="targetPoint" />
          </mxGeometry>
        </mxCell>
        <mxCell id="2TJLO5sUUVaPiXENoh-_-10" style="edgeStyle=orthogonalEdgeStyle;rounded=0;orthogonalLoop=1;jettySize=auto;html=1;exitX=0.5;exitY=1;exitDx=0;exitDy=0;entryX=0.44;entryY=0;entryDx=0;entryDy=0;entryPerimeter=0;" edge="1" parent="1" source="2TJLO5sUUVaPiXENoh-_-4">
          <mxGeometry relative="1" as="geometry">
            <mxPoint x="558.1199999999999" y="389" as="targetPoint" />
          </mxGeometry>
        </mxCell>
        <mxCell id="2TJLO5sUUVaPiXENoh-_-11" value="" style="endArrow=classic;html=1;rounded=0;" edge="1" parent="1">
          <mxGeometry width="50" height="50" relative="1" as="geometry">
            <mxPoint x="497" y="339" as="sourcePoint" />
            <mxPoint x="497" y="389" as="targetPoint" />
          </mxGeometry>
        </mxCell>
        <mxCell id="2TJLO5sUUVaPiXENoh-_-12" value="&lt;b&gt;&lt;font style=&quot;font-size: 14px;&quot;&gt;k&lt;/font&gt;&lt;/b&gt;" style="text;html=1;align=center;verticalAlign=middle;whiteSpace=wrap;rounded=0;" vertex="1" parent="1">
          <mxGeometry x="465" y="344" width="22" height="30" as="geometry" />
        </mxCell>
        <mxCell id="2TJLO5sUUVaPiXENoh-_-13" value="&lt;b&gt;&lt;font style=&quot;font-size: 14px;&quot;&gt;v&lt;/font&gt;&lt;/b&gt;" style="text;html=1;align=center;verticalAlign=middle;whiteSpace=wrap;rounded=0;" vertex="1" parent="1">
          <mxGeometry x="529" y="344" width="22" height="30" as="geometry" />
        </mxCell>
        <mxCell id="2TJLO5sUUVaPiXENoh-_-14" value="&lt;b style=&quot;font-size: 14px;&quot;&gt;q&lt;/b&gt;" style="text;html=1;align=center;verticalAlign=middle;whiteSpace=wrap;rounded=0;" vertex="1" parent="1">
          <mxGeometry x="582" y="344" width="22" height="30" as="geometry" />
        </mxCell>
        <mxCell id="2TJLO5sUUVaPiXENoh-_-15" value="" style="group" vertex="1" connectable="0" parent="1">
          <mxGeometry x="441" y="695" width="227" height="200" as="geometry" />
        </mxCell>
        <mxCell id="2TJLO5sUUVaPiXENoh-_-16" value="&lt;font style=&quot;font-size: 18px;&quot;&gt;&lt;b&gt;AVG Pool&lt;br&gt;&lt;/b&gt;&lt;/font&gt;" style="rounded=0;whiteSpace=wrap;html=1;" vertex="1" parent="2TJLO5sUUVaPiXENoh-_-15">
          <mxGeometry x="57" width="114" height="60" as="geometry" />
        </mxCell>
        <mxCell id="2TJLO5sUUVaPiXENoh-_-17" value="&lt;font style=&quot;font-size: 18px;&quot;&gt;&lt;b&gt;Linear&lt;/b&gt;&lt;/font&gt;" style="rounded=0;whiteSpace=wrap;html=1;" vertex="1" parent="2TJLO5sUUVaPiXENoh-_-15">
          <mxGeometry x="57" y="105" width="114" height="60" as="geometry" />
        </mxCell>
        <mxCell id="2TJLO5sUUVaPiXENoh-_-18" value="" style="edgeStyle=orthogonalEdgeStyle;rounded=0;orthogonalLoop=1;jettySize=auto;html=1;" edge="1" parent="2TJLO5sUUVaPiXENoh-_-15" source="2TJLO5sUUVaPiXENoh-_-16" target="2TJLO5sUUVaPiXENoh-_-17">
          <mxGeometry relative="1" as="geometry" />
        </mxCell>
        <mxCell id="2TJLO5sUUVaPiXENoh-_-19" value="" style="group" vertex="1" connectable="0" parent="1">
          <mxGeometry x="848" y="230" width="179" height="508" as="geometry" />
        </mxCell>
        <mxCell id="2TJLO5sUUVaPiXENoh-_-20" value="" style="rounded=0;whiteSpace=wrap;html=1;fillColor=#dae8fc;strokeColor=#6c8ebf;" vertex="1" parent="2TJLO5sUUVaPiXENoh-_-19">
          <mxGeometry y="30" width="179" height="478" as="geometry" />
        </mxCell>
        <mxCell id="2TJLO5sUUVaPiXENoh-_-21" value="" style="edgeStyle=orthogonalEdgeStyle;rounded=0;orthogonalLoop=1;jettySize=auto;html=1;" edge="1" parent="2TJLO5sUUVaPiXENoh-_-19" target="2TJLO5sUUVaPiXENoh-_-23">
          <mxGeometry relative="1" as="geometry">
            <mxPoint x="85" y="74" as="sourcePoint" />
          </mxGeometry>
        </mxCell>
        <mxCell id="2TJLO5sUUVaPiXENoh-_-22" value="" style="edgeStyle=orthogonalEdgeStyle;rounded=0;orthogonalLoop=1;jettySize=auto;html=1;" edge="1" parent="2TJLO5sUUVaPiXENoh-_-19" source="2TJLO5sUUVaPiXENoh-_-23" target="2TJLO5sUUVaPiXENoh-_-25">
          <mxGeometry relative="1" as="geometry" />
        </mxCell>
        <mxCell id="2TJLO5sUUVaPiXENoh-_-23" value="&lt;font style=&quot;font-size: 15px;&quot;&gt;&lt;b&gt;Multi-Head attention&lt;br&gt;&lt;/b&gt;&lt;/font&gt;" style="rounded=0;whiteSpace=wrap;html=1;" vertex="1" parent="2TJLO5sUUVaPiXENoh-_-19">
          <mxGeometry x="25" y="127.5" width="120" height="60" as="geometry" />
        </mxCell>
        <mxCell id="2TJLO5sUUVaPiXENoh-_-24" value="" style="edgeStyle=orthogonalEdgeStyle;rounded=0;orthogonalLoop=1;jettySize=auto;html=1;" edge="1" parent="2TJLO5sUUVaPiXENoh-_-19" source="2TJLO5sUUVaPiXENoh-_-25" target="2TJLO5sUUVaPiXENoh-_-26">
          <mxGeometry relative="1" as="geometry" />
        </mxCell>
        <mxCell id="2TJLO5sUUVaPiXENoh-_-25" value="&lt;font style=&quot;font-size: 15px;&quot;&gt;&lt;b&gt;Add &amp;amp; Norm&lt;br&gt;&lt;/b&gt;&lt;/font&gt;" style="rounded=0;whiteSpace=wrap;html=1;" vertex="1" parent="2TJLO5sUUVaPiXENoh-_-19">
          <mxGeometry x="25" y="231" width="120" height="60" as="geometry" />
        </mxCell>
        <mxCell id="2TJLO5sUUVaPiXENoh-_-26" value="&lt;font style=&quot;font-size: 15px;&quot;&gt;&lt;b&gt;Feed Forward&lt;br&gt;&lt;/b&gt;&lt;/font&gt;" style="rounded=0;whiteSpace=wrap;html=1;" vertex="1" parent="2TJLO5sUUVaPiXENoh-_-19">
          <mxGeometry x="25" y="344" width="120" height="60" as="geometry" />
        </mxCell>
        <mxCell id="2TJLO5sUUVaPiXENoh-_-27" value="" style="shape=waypoint;sketch=0;fillStyle=solid;size=6;pointerEvents=1;points=[];fillColor=none;resizable=0;rotatable=0;perimeter=centerPerimeter;snapToPoint=1;" vertex="1" parent="2TJLO5sUUVaPiXENoh-_-19">
          <mxGeometry x="75" y="88" width="20" height="20" as="geometry" />
        </mxCell>
        <mxCell id="2TJLO5sUUVaPiXENoh-_-28" value="" style="edgeStyle=orthogonalEdgeStyle;rounded=0;orthogonalLoop=1;jettySize=auto;html=1;" edge="1" parent="2TJLO5sUUVaPiXENoh-_-19">
          <mxGeometry relative="1" as="geometry">
            <mxPoint x="86" y="404" as="sourcePoint" />
            <mxPoint x="86" y="458" as="targetPoint" />
          </mxGeometry>
        </mxCell>
        <mxCell id="2TJLO5sUUVaPiXENoh-_-29" value="" style="shape=waypoint;sketch=0;fillStyle=solid;size=6;pointerEvents=1;points=[];fillColor=none;resizable=0;rotatable=0;perimeter=centerPerimeter;snapToPoint=1;" vertex="1" parent="2TJLO5sUUVaPiXENoh-_-19">
          <mxGeometry x="76" y="418" width="20" height="20" as="geometry" />
        </mxCell>
        <mxCell id="2TJLO5sUUVaPiXENoh-_-30" value="&lt;font style=&quot;font-size: 13px;&quot;&gt;&lt;b&gt;&lt;font style=&quot;font-size: 13px;&quot;&gt;Positional Encoding&lt;/font&gt;&lt;/b&gt;&lt;/font&gt;" style="text;html=1;align=center;verticalAlign=middle;whiteSpace=wrap;rounded=0;" vertex="1" parent="2TJLO5sUUVaPiXENoh-_-19">
          <mxGeometry x="95" y="78.5" width="67" height="39" as="geometry" />
        </mxCell>
        <mxCell id="2TJLO5sUUVaPiXENoh-_-31" value="&lt;font style=&quot;font-size: 13px;&quot;&gt;&lt;b&gt;&lt;font style=&quot;font-size: 13px;&quot;&gt;Positional Encoding&lt;/font&gt;&lt;/b&gt;&lt;/font&gt;" style="text;html=1;align=center;verticalAlign=middle;whiteSpace=wrap;rounded=0;" vertex="1" parent="2TJLO5sUUVaPiXENoh-_-19">
          <mxGeometry x="95" y="408.5" width="67" height="39" as="geometry" />
        </mxCell>
        <mxCell id="2TJLO5sUUVaPiXENoh-_-32" value="&lt;b&gt;&lt;font style=&quot;font-size: 15px;&quot;&gt;Transformer Block&lt;/font&gt;&lt;/b&gt;" style="text;html=1;align=center;verticalAlign=middle;whiteSpace=wrap;rounded=0;shadow=0;" vertex="1" parent="2TJLO5sUUVaPiXENoh-_-19">
          <mxGeometry x="19.5" width="140" height="30" as="geometry" />
        </mxCell>
        <mxCell id="2TJLO5sUUVaPiXENoh-_-33" value="&lt;font style=&quot;font-size: 14px;&quot;&gt;&lt;b&gt;cross-attention&lt;/b&gt;&lt;/font&gt;" style="text;html=1;align=center;verticalAlign=middle;whiteSpace=wrap;rounded=0;" vertex="1" parent="1">
          <mxGeometry x="332" y="557.5" width="67" height="47" as="geometry" />
        </mxCell>
        <mxCell id="2TJLO5sUUVaPiXENoh-_-34" value="&lt;font style=&quot;font-size: 14px;&quot;&gt;&lt;b&gt;cross-attention&lt;/b&gt;&lt;/font&gt;" style="text;html=1;align=center;verticalAlign=middle;whiteSpace=wrap;rounded=0;" vertex="1" parent="1">
          <mxGeometry x="332" y="395.5" width="67" height="47" as="geometry" />
        </mxCell>
        <mxCell id="2TJLO5sUUVaPiXENoh-_-35" value="" style="edgeStyle=orthogonalEdgeStyle;rounded=0;orthogonalLoop=1;jettySize=auto;html=1;" edge="1" parent="1" source="2TJLO5sUUVaPiXENoh-_-36" target="2TJLO5sUUVaPiXENoh-_-3">
          <mxGeometry relative="1" as="geometry" />
        </mxCell>
        <mxCell id="2TJLO5sUUVaPiXENoh-_-36" value="&lt;font size=&quot;1&quot;&gt;&lt;b style=&quot;font-size: 18px;&quot;&gt;Input: audio features&lt;/b&gt;&lt;/font&gt;" style="rounded=0;whiteSpace=wrap;html=1;" vertex="1" parent="1">
          <mxGeometry x="596" y="63" width="236" height="60" as="geometry" />
        </mxCell>
        <mxCell id="2TJLO5sUUVaPiXENoh-_-37" value="&lt;font style=&quot;font-size: 18px;&quot;&gt;&lt;b&gt;Output Layer&lt;br&gt;&lt;/b&gt;&lt;/font&gt;" style="rounded=0;whiteSpace=wrap;html=1;" vertex="1" parent="1">
          <mxGeometry x="441" y="916" width="227" height="60" as="geometry" />
        </mxCell>
        <mxCell id="2TJLO5sUUVaPiXENoh-_-38" value="" style="edgeStyle=orthogonalEdgeStyle;rounded=0;orthogonalLoop=1;jettySize=auto;html=1;" edge="1" parent="1" source="2TJLO5sUUVaPiXENoh-_-17" target="2TJLO5sUUVaPiXENoh-_-37">
          <mxGeometry relative="1" as="geometry" />
        </mxCell>
        <mxCell id="2TJLO5sUUVaPiXENoh-_-39" value="" style="endArrow=classic;html=1;rounded=0;" edge="1" parent="1">
          <mxGeometry width="50" height="50" relative="1" as="geometry">
            <mxPoint x="454" y="339" as="sourcePoint" />
            <mxPoint x="513" y="553" as="targetPoint" />
            <Array as="points">
              <mxPoint x="400" y="339" />
              <mxPoint x="400" y="507" />
              <mxPoint x="513" y="507" />
            </Array>
          </mxGeometry>
        </mxCell>
        <mxCell id="2TJLO5sUUVaPiXENoh-_-40" value="&lt;b&gt;&lt;font style=&quot;font-size: 14px;&quot;&gt;k&lt;/font&gt;&lt;/b&gt;" style="text;html=1;align=center;verticalAlign=middle;whiteSpace=wrap;rounded=0;" vertex="1" parent="1">
          <mxGeometry x="485" y="517" width="22" height="30" as="geometry" />
        </mxCell>
        <mxCell id="2TJLO5sUUVaPiXENoh-_-41" value="&lt;b style=&quot;font-size: 14px;&quot;&gt;q&lt;/b&gt;" style="text;html=1;align=center;verticalAlign=middle;whiteSpace=wrap;rounded=0;" vertex="1" parent="1">
          <mxGeometry x="563" y="517" width="22" height="30" as="geometry" />
        </mxCell>
        <mxCell id="2TJLO5sUUVaPiXENoh-_-42" value="&lt;b&gt;&lt;font style=&quot;font-size: 14px;&quot;&gt;v&lt;/font&gt;&lt;/b&gt;" style="text;html=1;align=center;verticalAlign=middle;whiteSpace=wrap;rounded=0;" vertex="1" parent="1">
          <mxGeometry x="517" y="517" width="22" height="30" as="geometry" />
        </mxCell>
        <mxCell id="2TJLO5sUUVaPiXENoh-_-43" value="&lt;font style=&quot;font-size: 14px;&quot;&gt;&lt;b&gt;temporal dimension&lt;/b&gt;&lt;/font&gt;" style="text;html=1;align=center;verticalAlign=middle;whiteSpace=wrap;rounded=0;" vertex="1" parent="1">
          <mxGeometry x="413" y="697" width="80" height="56" as="geometry" />
        </mxCell>
      </root>
    </mxGraphModel>
  </diagram>
</mxfile>
